# xmcd
#
# Track frame offsets: 
#        150
#        24617
#        39715
#        60832
#        76032
#        98132
#        111072
#        145755
#
# Disc length: 2172 seconds
#
# Revision: 5
# Processed by: cddbd v1.5.2PL0 Copyright (c) Steve Scherf et al.
# Submitted via: ExactAudioCopyFreeDBPlugin 1.0
#
DISCID=58087a08
DTITLE=Marvin Gaye - Dream Of A Lifetime
DYEAR=1985
DGENRE=Soul
TTITLE0=Sanctified Lady
TTITLE1=Savage In The Sack
TTITLE2=Masochistic Beauty
TTITLE3=It's Madness
TTITLE4=Ain't It Funny (How Things Turn Around)
TTITLE5=Symphony
TTITLE6=Life's Opera
TTITLE7=Dream Of A Lifetime
EXTD=
EXTT0=
EXTT1=
EXTT2=
EXTT3=
EXTT4=
EXTT5=
EXTT6=
EXTT7=
PLAYORDER=
